<svg id="SvgjsSvg1001" width="288" height="288" xmlns="http://www.w3.org/2000/svg" version="1.1" xmlns:xlink="http://www.w3.org/1999/xlink" xmlns:svgjs="http://svgjs.com/svgjs"><defs id="SvgjsDefs1002"></defs><g id="SvgjsG1008" transform="matrix(1,0,0,1,0,0)"><svg xmlns="http://www.w3.org/2000/svg" width="288" height="288" version="1.2" viewBox="0 0 375 375"><path fill="#6d5aaf" d="M 238.253906 87.96875 C 221.6875 85.242188 197.789062 89.878906 193.714844 110.078125 C 192.628906 115.808594 191.8125 121.539062 191.269531 127.269531 C 190.457031 131.910156 187.195312 131.910156 187.195312 131.910156 L 187.195312 162.207031 C 208.921875 162.207031 220.875 152.925781 224.402344 139.28125 C 226.304688 130.546875 224.402344 121.539062 218.699219 114.445312 L 219.515625 113.625 C 219.515625 113.625 234.996094 126.179688 248.03125 114.171875 C 259.4375 104.617188 262.152344 96.976562 262.152344 96.976562 C 254.820312 92.335938 246.671875 89.335938 238.253906 87.96875 Z M 238.253906 87.96875 " class="colorc24387 svgShape"></path><path fill="#564495" d="M 136.140625 87.96875 C 152.707031 85.242188 176.332031 89.878906 180.679688 110.078125 C 181.765625 115.808594 182.578125 121.539062 183.394531 127.269531 C 183.9375 131.910156 187.195312 131.910156 187.195312 131.910156 L 187.195312 162.207031 C 165.46875 162.207031 153.519531 152.925781 150.261719 139.28125 C 148.359375 130.546875 150.261719 121.539062 155.964844 114.445312 L 155.148438 113.625 C 155.148438 113.625 139.671875 126.179688 126.363281 114.171875 C 114.957031 104.617188 112.238281 96.703125 112.238281 96.703125 C 119.574219 92.335938 127.71875 89.335938 136.140625 87.96875 Z M 136.140625 87.96875 " class="colora9327d svgShape"></path><path fill="#6ec48d" d="M 285.511719 236.714844 C 288.226562 220.066406 283.609375 196.324219 263.511719 191.957031 C 257.808594 190.863281 252.105469 190.046875 246.402344 189.5 C 241.785156 188.679688 241.785156 185.679688 241.785156 185.679688 L 211.640625 185.679688 C 211.640625 207.511719 220.875 219.519531 234.453125 223.070312 C 243.144531 224.980469 252.105469 223.070312 259.167969 217.339844 L 259.980469 218.15625 C 259.980469 218.15625 247.488281 233.714844 259.4375 246.8125 C 268.941406 258.277344 276.820312 261.007812 276.820312 261.007812 C 281.164062 253.363281 284.152344 245.175781 285.511719 236.714844 Z M 285.511719 236.714844 " class="color8c4b89 svgShape"></path><path fill="#62b47f" d="M 285.511719 134.367188 C 288.226562 151.015625 283.609375 175.035156 263.511719 179.128906 C 257.808594 180.21875 252.105469 181.039062 246.402344 181.585938 C 241.785156 182.128906 241.785156 185.40625 241.785156 185.40625 L 211.640625 185.40625 C 211.640625 163.570312 220.875 151.5625 234.453125 148.015625 C 243.144531 146.105469 252.105469 148.015625 259.167969 153.746094 L 259.980469 152.925781 C 259.980469 152.925781 247.488281 137.371094 259.4375 124.269531 C 268.941406 112.804688 276.820312 110.078125 276.820312 110.078125 C 281.164062 117.71875 284.152344 125.90625 285.511719 134.367188 Z M 285.511719 134.367188 " class="color802b7f svgShape"></path><path fill="#b5b5b5" d="M 136.683594 287.753906 C 153.25 290.484375 177.148438 285.84375 181.222656 265.644531 C 182.308594 259.914062 183.125 254.183594 183.667969 248.453125 C 184.480469 243.8125 187.46875 243.8125 187.46875 243.8125 L 187.46875 213.242188 C 165.742188 213.242188 153.792969 222.523438 150.535156 236.171875 C 148.632812 244.902344 150.535156 253.910156 156.238281 261.007812 L 155.421875 261.824219 C 155.421875 261.824219 139.941406 249.269531 126.90625 261.28125 C 115.5 270.832031 112.785156 278.746094 112.785156 278.746094 C 120.117188 283.113281 127.992188 286.117188 136.683594 287.753906 Z M 136.683594 287.753906 " class="color98a2d2 svgShape"></path><path fill="#e3e3e3" d="M 238.527344 287.753906 C 221.960938 290.484375 198.058594 285.84375 193.988281 265.644531 C 192.898438 259.914062 192.085938 254.183594 191.542969 248.453125 C 190.726562 243.8125 187.46875 243.8125 187.46875 243.8125 L 187.46875 213.242188 C 209.195312 213.242188 221.144531 222.523438 224.675781 236.171875 C 226.578125 244.902344 224.675781 253.910156 218.972656 261.007812 L 219.785156 261.824219 C 219.785156 261.824219 235.265625 249.269531 248.574219 261.28125 C 259.980469 270.832031 262.695312 278.746094 262.695312 278.746094 C 255.09375 283.113281 246.945312 286.117188 238.527344 287.753906 Z M 238.527344 287.753906 " class="color8777b7 svgShape"></path><path fill="#ff7f5d" d="M 89.15625 139.007812 C 86.441406 155.65625 91.058594 179.402344 111.152344 183.769531 C 116.855469 184.859375 122.558594 185.679688 128.261719 186.222656 C 132.878906 187.042969 132.878906 190.046875 132.878906 190.046875 L 163.296875 190.046875 C 163.296875 168.210938 154.0625 156.203125 140.484375 152.925781 C 131.792969 150.742188 122.832031 152.925781 115.769531 158.386719 L 114.957031 157.566406 C 114.957031 157.566406 127.449219 142.007812 115.5 128.910156 C 105.992188 117.445312 98.117188 114.714844 98.117188 114.714844 C 93.5 122.085938 90.511719 130.273438 89.15625 139.007812 Z M 89.15625 139.007812 " class="color77cab9 svgShape"></path><path fill="#fd8f72" d="M 89.15625 241.355469 C 86.441406 224.707031 91.058594 200.6875 111.152344 196.59375 C 116.855469 195.503906 122.558594 194.683594 128.261719 194.140625 C 132.878906 193.59375 132.878906 190.316406 132.878906 190.316406 L 163.296875 190.316406 C 163.296875 212.152344 154.0625 224.160156 140.484375 227.710938 C 131.792969 229.621094 122.832031 227.710938 115.769531 221.976562 L 114.957031 222.796875 C 114.957031 222.796875 127.449219 238.355469 115.5 251.453125 C 105.992188 262.917969 98.117188 265.644531 98.117188 265.644531 C 93.5 258.003906 90.511719 249.816406 89.15625 241.355469 Z M 89.15625 241.355469 " class="color00b6d4 svgShape"></path><path fill="#6d5aaf" d="M 238.253906 87.96875 C 221.6875 85.242188 197.789062 89.878906 193.714844 110.078125 C 192.628906 115.808594 191.8125 121.539062 191.269531 127.269531 C 190.457031 131.910156 187.195312 131.910156 187.195312 131.910156 L 187.195312 162.207031 C 208.921875 162.207031 220.875 152.925781 224.402344 139.28125 C 226.304688 130.546875 224.402344 121.539062 218.699219 114.445312 L 219.515625 113.625 C 219.515625 113.625 234.996094 126.179688 248.03125 114.171875 C 259.4375 104.617188 262.152344 96.976562 262.152344 96.976562 C 254.820312 92.335938 246.671875 89.335938 238.253906 87.96875 Z M 238.253906 87.96875 " class="colorc24387 svgShape"></path><path fill="#564495" d="M 136.140625 87.96875 C 152.707031 85.242188 176.332031 89.878906 180.679688 110.078125 C 181.765625 115.808594 182.578125 121.539062 183.394531 127.269531 C 183.9375 131.910156 187.195312 131.910156 187.195312 131.910156 L 187.195312 162.207031 C 165.46875 162.207031 153.519531 152.925781 150.261719 139.28125 C 148.359375 130.546875 150.261719 121.539062 155.964844 114.445312 L 155.148438 113.625 C 155.148438 113.625 139.671875 126.179688 126.363281 114.171875 C 114.957031 104.617188 112.238281 96.703125 112.238281 96.703125 C 119.574219 92.335938 127.71875 89.335938 136.140625 87.96875 Z M 136.140625 87.96875 " class="colora9327d svgShape"></path><path fill="#6ec48d" d="M 285.511719 236.714844 C 288.226562 220.066406 283.609375 196.324219 263.511719 191.957031 C 257.808594 190.863281 252.105469 190.046875 246.402344 189.5 C 241.785156 188.679688 241.785156 185.679688 241.785156 185.679688 L 211.640625 185.679688 C 211.640625 207.511719 220.875 219.519531 234.453125 223.070312 C 243.144531 224.980469 252.105469 223.070312 259.167969 217.339844 L 259.980469 218.15625 C 259.980469 218.15625 247.488281 233.714844 259.4375 246.8125 C 268.941406 258.277344 276.820312 261.007812 276.820312 261.007812 C 281.164062 253.363281 284.152344 245.175781 285.511719 236.714844 Z M 285.511719 236.714844 " class="color8c4b89 svgShape"></path><path fill="#62b47f" d="M 285.511719 134.367188 C 288.226562 151.015625 283.609375 175.035156 263.511719 179.128906 C 257.808594 180.21875 252.105469 181.039062 246.402344 181.585938 C 241.785156 182.128906 241.785156 185.40625 241.785156 185.40625 L 211.640625 185.40625 C 211.640625 163.570312 220.875 151.5625 234.453125 148.015625 C 243.144531 146.105469 252.105469 148.015625 259.167969 153.746094 L 259.980469 152.925781 C 259.980469 152.925781 247.488281 137.371094 259.4375 124.269531 C 268.941406 112.804688 276.820312 110.078125 276.820312 110.078125 C 281.164062 117.71875 284.152344 125.90625 285.511719 134.367188 Z M 285.511719 134.367188 " class="color802b7f svgShape"></path><path fill="#b5b5b5" d="M 136.683594 287.753906 C 153.25 290.484375 177.148438 285.84375 181.222656 265.644531 C 182.308594 259.914062 183.125 254.183594 183.667969 248.453125 C 184.480469 243.8125 187.46875 243.8125 187.46875 243.8125 L 187.46875 213.242188 C 165.742188 213.242188 153.792969 222.523438 150.535156 236.171875 C 148.632812 244.902344 150.535156 253.910156 156.238281 261.007812 L 155.421875 261.824219 C 155.421875 261.824219 139.941406 249.269531 126.90625 261.28125 C 115.5 270.832031 112.785156 278.746094 112.785156 278.746094 C 120.117188 283.113281 127.992188 286.117188 136.683594 287.753906 Z M 136.683594 287.753906 " class="color98a2d2 svgShape"></path><path fill="#e3e3e3" d="M 238.527344 287.753906 C 221.960938 290.484375 198.058594 285.84375 193.988281 265.644531 C 192.898438 259.914062 192.085938 254.183594 191.542969 248.453125 C 190.726562 243.8125 187.46875 243.8125 187.46875 243.8125 L 187.46875 213.242188 C 209.195312 213.242188 221.144531 222.523438 224.675781 236.171875 C 226.578125 244.902344 224.675781 253.910156 218.972656 261.007812 L 219.785156 261.824219 C 219.785156 261.824219 235.265625 249.269531 248.574219 261.28125 C 259.980469 270.832031 262.695312 278.746094 262.695312 278.746094 C 255.09375 283.113281 246.945312 286.117188 238.527344 287.753906 Z M 238.527344 287.753906 " class="color8777b7 svgShape"></path><path fill="#ff7f5d" d="M 89.15625 139.007812 C 86.441406 155.65625 91.058594 179.402344 111.152344 183.769531 C 116.855469 184.859375 122.558594 185.679688 128.261719 186.222656 C 132.878906 187.042969 132.878906 190.046875 132.878906 190.046875 L 163.296875 190.046875 C 163.296875 168.210938 154.0625 156.203125 140.484375 152.925781 C 131.792969 150.742188 122.832031 152.925781 115.769531 158.386719 L 114.957031 157.566406 C 114.957031 157.566406 127.449219 142.007812 115.5 128.910156 C 105.992188 117.445312 98.117188 114.714844 98.117188 114.714844 C 93.5 122.085938 90.511719 130.273438 89.15625 139.007812 Z M 89.15625 139.007812 " class="color77cab9 svgShape"></path><path fill="#fd8f72" d="M 89.15625 241.355469 C 86.441406 224.707031 91.058594 200.6875 111.152344 196.59375 C 116.855469 195.503906 122.558594 194.683594 128.261719 194.140625 C 132.878906 193.59375 132.878906 190.316406 132.878906 190.316406 L 163.296875 190.316406 C 163.296875 212.152344 154.0625 224.160156 140.484375 227.710938 C 131.792969 229.621094 122.832031 227.710938 115.769531 221.976562 L 114.957031 222.796875 C 114.957031 222.796875 127.449219 238.355469 115.5 251.453125 C 105.992188 262.917969 98.117188 265.644531 98.117188 265.644531 C 93.5 258.003906 90.511719 249.816406 89.15625 241.355469 Z M 89.15625 241.355469 " class="color00b6d4 svgShape"></path></svg></g></svg>